Coordinates
version=1
nRows=15
nColumns=42
inDegrees=yes

Units are S.I. units (second, meters, Newtons, ...)
If the header above contains a line with 'inDegrees', this indicates whether rotational values are in degrees (yes) or radians (no).

endheader
time	pelvis_tilt	pelvis_list	pelvis_rotation	pelvis_tx	pelvis_ty	pelvis_tz	hip_flexion_r	hip_adduction_r	hip_rotation_r	knee_angle_r	knee_adduction_r	knee_angle_r_beta	ankle_angle_r	subtalar_angle_r	mtp_angle_r	hip_flexion_l	hip_adduction_l	hip_rotation_l	knee_angle_l	knee_adduction_l	knee_angle_l_beta	ankle_angle_l	subtalar_angle_l	mtp_angle_l	lumbar_extension	lumbar_bending	lumbar_rotation	arm_flex_r	arm_add_r	arm_rot_r	elbow_flex_r	pro_sup_r	wrist_flex_r	wrist_dev_r	arm_flex_l	arm_add_l	arm_rot_l	elbow_flex_l	pro_sup_l	wrist_flex_l	wrist_dev_l
      0.66000000	     12.70234259	     -4.50324250	     -9.06339753	     -0.43844792	      0.84177106	     -0.17638652	    -28.40132464	      6.91174444	    -10.00871252	     16.82265343	     -3.47606323	      0.29361069	     26.91106115	      3.00792034	     -7.67202369	      9.05314756	     -4.25462293	    -16.65928327	      9.42424436	      4.14704900	      0.16448409	      8.59317067	     -4.69532804	     -7.67202369	    -27.30240364	     -0.45174862	     13.38241522	     23.82591261	     -9.87485439	      9.83474239	     50.09062678	     90.00000001	      0.00000000	      0.00000000	     -9.81114415	     -0.24533533	    -23.92373538	     19.73771249	     90.00000001	      0.00000000	      0.00000000
      0.67000000	     12.61976377	     -4.27441224	     -9.22873457	     -0.42673945	      0.84129203	     -0.17626577	    -28.54528463	      6.37269040	     -9.87023156	     17.99891787	     -3.62124330	      0.31414038	     26.26578820	      3.18550156	     -7.67016445	      8.98871604	     -3.74800396	    -16.17195701	     10.57655454	      3.88113482	      0.18459570	      8.35439693	     -4.93141660	     -7.67016445	    -27.12902084	     -0.79957689	     13.44919294	     23.24763748	     -9.83409425	      9.69342160	     49.54502152	     90.00000001	      0.00000000	      0.00000000	     -9.67672850	     -0.30612632	    -24.01407892	     19.74774091	     90.00000001	      0.00000000	      0.00000000
      0.68000000	     12.55362421	     -3.99968535	     -9.35242782	     -0.41495875	      0.84109487	     -0.17607435	    -28.57998771	      5.84301093	     -9.76093554	     19.33716241	     -3.83794462	      0.33749715	     25.47745243	      3.27647311	     -7.66837327	      8.88852375	     -3.22589374	    -15.68628165	     11.74569014	      3.65428517	      0.20500097	      8.07171346	     -5.13460392	     -7.66837327	    -26.97386099	     -1.21374150	     13.49506978	     22.58554973	     -9.75435142	      9.52186324	     48.92910840	     90.00000001	      0.00000000	      0.00000000	     -9.43006213	     -0.44605852	    -24.08640835	     19.77353008	     90.00000001	      0.00000000	      0.00000000
      0.69000000	     12.54480484	     -3.47608926	     -9.42409571	     -0.40285689	      0.84114024	     -0.17614754	    -28.28793845	      4.90550610	    -10.59553873	     21.39579484	     -4.09511680	      0.37342707	     24.07199497	      3.13299700	     -7.66384975	      8.85195755	     -2.38787370	    -15.78755187	     13.10595699	      3.19959595	      0.22874210	      7.54056301	     -5.87994501	     -7.66384975	    -26.81598544	     -1.87829212	     13.31891411	     21.88949859	     -9.45895074	      8.90396428	     47.92568342	     90.00000001	      0.00000000	      0.00000000	     -9.06725306	     -0.60804209	    -24.42806027	     19.46729243	     90.00000001	      0.00000000	      0.00000000
      0.70000000	     12.59955336	     -3.10755001	     -9.45177692	     -0.39097158	      0.84167923	     -0.17626689	    -28.07699081	      4.22245921	    -10.57097109	     23.37610598	     -4.28218912	      0.40799002	     22.63899088	      2.90180055	     -7.66039296	      8.57894590	     -1.73122514	    -15.13551698	     14.17308287	      2.96930157	      0.24736696	      7.36556094	     -6.33288778	     -7.66039296	    -26.82334207	     -2.37288160	     13.23463666	     21.12070097	     -9.32404941	      8.47409734	     47.11405373	     90.00000001	      0.00000000	      0.00000000	     -8.58026542	     -0.76087063	    -24.74457601	     19.34716022	     90.00000001	      0.00000000	      0.00000000
      0.71000000	     12.68037800	     -2.75164203	     -9.43826114	     -0.37920280	      0.84256013	     -0.17638924	    -27.73031655	      3.58915157	    -10.31944890	     25.60363495	     -4.45263700	      0.44686773	     20.81285488	      2.18683289	     -7.65676260	      8.27318601	     -1.11514377	    -14.31594260	     15.25723528	      2.81404236	      0.26628899	      7.32353631	     -6.95810706	     -7.65676260	    -26.89931951	     -2.85587273	     13.13414644	     20.31522628	     -9.17938809	      8.04655808	     46.21730818	     90.00000001	      0.00000000	      0.00000000	     -7.97382994	     -0.95359500	    -24.95559080	     19.25116845	     90.00000001	      0.00000000	      0.00000000
      0.72000000	     12.73861099	     -2.46992097	     -9.34736254	     -0.36745300	      0.84370146	     -0.17664742	    -27.23553037	      3.04440732	     -9.66287880	     28.06549694	     -4.41163001	      0.48983533	     18.57163750	      0.42800653	     -7.64932425	      7.89696732	     -0.57430633	    -12.92984814	     16.20507556	      2.77457648	      0.28283192	      7.17622875	     -8.26108633	     -7.64932425	    -26.96698445	     -3.20863524	     12.96047986	     19.47650315	     -8.97487100	      7.46101121	     45.23739374	     90.00000001	      0.00000000	      0.00000000	     -7.28108064	     -1.14239550	    -25.20418346	     19.10583302	     90.00000001	      0.00000000	      0.00000000
      0.73000000	     12.90422694	     -2.17688326	     -9.26703528	     -0.35582340	      0.84518692	     -0.17692019	    -26.63841553	      2.44611806	     -8.94642800	     30.83966731	     -4.33546052	      0.53825373	     16.02114469	     -1.08873316	     -7.64504253	      7.32957025	     -0.03864660	    -11.79828992	     17.00577332	      2.83566648	      0.29680674	      7.37275808	     -9.28358143	     -7.64504253	    -27.17813812	     -3.58864187	     12.84914339	     18.63927536	     -8.89939620	      7.14301207	     44.18320544	     90.00000001	      0.00000000	      0.00000000	     -6.50297729	     -1.37011811	    -25.12258807	     19.11659059	     90.00000001	      0.00000000	      0.00000000
      0.74000000	     13.04240462	     -1.93333200	     -9.22609314	     -0.34418809	      0.84677978	     -0.17720893	    -25.84448727	      1.80989476	     -8.05684061	     33.85788427	     -4.03747322	      0.59093156	     13.32079188	     -2.91436041	     -7.64142685	      6.66766707	      0.44936684	    -10.53354086	     17.62090385	      2.93873325	      0.30754279	      7.69334077	    -10.39476549	     -7.64142685	    -27.34511131	     -3.89595775	     12.72548154	     17.77106415	     -8.75090905	      6.81018768	     43.05771116	     90.00000001	      0.00000000	      0.00000000	     -5.73766874	     -1.59962452	    -24.89940892	     19.16891709	     90.00000001	      0.00000000	      0.00000000
      0.75000000	     13.17684071	     -1.80399495	     -8.99379682	     -0.33292582	      0.84868749	     -0.17767228	    -25.05655812	      1.45629233	     -6.16888569	     36.78529578	     -3.22145606	      0.64202453	     10.17771723	     -6.85802604	     -7.63073210	      5.75402380	      0.83638390	     -8.24343704	     17.68235232	      3.32854666	      0.30861527	      7.35845376	    -12.89879771	     -7.63073210	    -27.60258936	     -4.02260738	     12.47801539	     16.95396616	     -8.58380823	      6.24350989	     41.87451962	     90.00000001	      0.00000000	      0.00000000	     -4.93462889	     -1.84363520	    -24.14597471	     19.35046818	     90.00000001	      0.00000000	      0.00000000
      0.76000000	     13.66538707	     -1.81740618	     -8.65173152	     -0.32153409	      0.85081794	     -0.17837800	    -24.53292950	      1.11947547	     -5.31505323	     39.74019362	     -2.66943586	      0.69359722	      8.80272613	     -6.95541625	     -7.62885430	      4.60806957	      1.03165968	     -7.60270615	     18.24095406	      3.49517107	      0.31836471	      8.01778138	    -12.63112366	     -7.62885430	    -28.25023186	     -3.95469822	     12.11206658	     16.10766208	     -8.59326845	      6.16264364	     41.03131783	     90.00000001	      0.00000000	      0.00000000	     -4.08615738	     -2.00595629	    -23.90563768	     19.70287904	     90.00000001	      0.00000000	      0.00000000
      0.77000000	     13.39079950	     -1.34014636	     -8.65231708	     -0.31055516	      0.85205863	     -0.17890047	    -22.66065714	      0.15192691	     -3.60642787	     43.54968364	     -1.46428415	      0.76008537	      5.47310677	    -11.79542228	     -7.62051539	      3.98315919	      1.79941371	     -6.35728787	     17.75769420	      3.59461222	      0.30993023	      8.08900455	    -14.10121476	     -7.62051539	    -27.96683208	     -4.40854314	     11.91753315	     15.28817580	     -8.35299609	      5.61375937	     39.44504274	     90.00000001	      0.00000000	      0.00000000	     -3.26358102	     -2.35018061	    -22.60154191	     19.94118284	     90.00000001	      0.00000000	      0.00000000
      0.78000000	     13.47815683	     -1.08822345	     -8.48051707	     -0.29962612	      0.85364047	     -0.17960380	    -21.26114963	     -0.55103397	     -2.36180815	     46.94379825	     -0.44324480	      0.81932384	      3.95503227	    -13.83946628	     -7.61539838	      2.96532683	      2.29687947	     -5.82525656	     17.45259247	      3.66940326	      0.30460520	      8.52766868	    -14.12764576	     -7.61539838	    -28.13694654	     -4.58754267	     11.57014212	     14.50450787	     -8.24767727	      5.40957817	     38.20311583	     90.00000001	      0.00000000	      0.00000000	     -2.40860432	     -2.61219299	    -21.67521934	     20.31930438	     90.00000001	      0.00000000	      0.00000000
      0.79000000	     13.51078910	     -0.96967640	     -8.28232051	     -0.28890784	      0.85509968	     -0.18024271	    -19.72296884	     -1.08654231	     -1.13171152	     50.28395017	      0.64059649	      0.87762049	      2.93593514	    -15.52322916	     -7.61128772	      1.91344273	      2.61961075	     -5.50061489	     16.94980176	      3.70912870	      0.29582985	      9.18439827	    -13.90823724	     -7.61128772	    -28.27329545	     -4.60286134	     11.23990542	     13.71832713	     -8.14150640	      5.16047759	     36.98288951	     90.00000001	      0.00000000	      0.00000000	     -1.51728252	     -2.89210781	    -20.74151108	     20.81231443	     90.00000001	      0.00000000	      0.00000000
      0.80000000	     13.54245670	     -0.88558035	     -8.00135611	     -0.27861547	      0.85649449	     -0.18103591	    -18.11644690	     -1.48888053	     -0.19565527	     53.42271244	      1.48311110	      0.93240223	      2.59710906	    -16.76026399	     -7.60825436	      0.85443277	      2.88404719	     -5.37841826	     16.35300373	      3.76108342	      0.28541376	      9.81797407	    -13.39401800	     -7.60825436	    -28.48027794	     -4.54383696	     10.86049241	     12.99188671	     -8.09927134	      4.92048697	     35.84880345	     90.00000001	      0.00000000	      0.00000000	     -0.52031074	     -3.14072273	    -19.87729420	     21.36811975	     90.00000001	      0.00000000	      0.00000000
